<svg width="16.000000" height="16.000000" viewBox="0 0 16 16" fill="none" xmlns="http://www.w3.org/2000/svg" xmlns:xlink="http://www.w3.org/1999/xlink">
	<desc>
			Created with Pixso.
	</desc>
	<defs/>
	<path id="icon" d="M10.68 11.74C9.66 12.53 8.38 13 7 13C3.68 13 1 10.31 1 7C1 3.68 3.68 1 7 1C10.31 1 13 3.68 13 7C13 8.39 12.53 9.66 11.74 10.68L14.77 13.71C15.07 14.01 15.07 14.48 14.78 14.77C14.48 15.07 14.01 15.07 13.71 14.78L10.68 11.74ZM11.5 7C11.5 9.49 9.48 11.5 7 11.5C4.51 11.5 2.5 9.49 2.5 7C2.5 4.51 4.51 2.5 7 2.5C9.48 2.5 11.5 4.51 11.5 7Z" fill="#868FA0" fill-opacity="1.000000" fill-rule="evenodd"/>
</svg>
